<svg xmlns="http://www.w3.org/2000/svg" viewBox="0 0 100 100"><defs>
<linearGradient id="b" x1="0" y1="1" x2="0" y2="0"><stop offset="0" stop-color="#ff8a4a" stop-opacity="1"></stop><stop offset="1" stop-color="#ff8a4a" stop-opacity="0"></stop></linearGradient>
<radialGradient id="l" cx="0.5" cy="0.3" r="0.9"><stop offset="0" stop-color="#ffd8b4"></stop><stop offset="0.6" stop-color="#ff8a4a"></stop><stop offset="1" stop-color="#ff8a4a"></stop></radialGradient>
<radialGradient id="g" cx="0.5" cy="0.5" r="0.5"><stop offset="0" stop-color="#ff9a5a" stop-opacity="0.85"></stop><stop offset="1" stop-color="#ff9a5a" stop-opacity="0"></stop></radialGradient>
<radialGradient id="bg" cx="0.5" cy="0.16" r="1.05"><stop offset="0" stop-color="#2a3e5c"></stop><stop offset="0.78" stop-color="#0e1626"></stop></radialGradient>
<linearGradient id="hi" x1="0" y1="0" x2="0" y2="1"><stop offset="0" stop-color="#ffffff" stop-opacity="0.16"></stop><stop offset="0.42" stop-color="#ffffff" stop-opacity="0"></stop></linearGradient>
</defs>
<rect width="100" height="100" rx="22.5" fill="url(#bg)"></rect>
<g transform="translate(50,50) scale(0.94) translate(-50,-45)"><ellipse cx="50" cy="42" rx="42" ry="34" fill="url(#g)"></ellipse><g fill="url(#b)"><polygon points="23,66 37,66 45,22 15,22"></polygon><polygon points="43,66 57,66 65,22 35,22"></polygon><polygon points="63,66 77,66 85,22 55,22"></polygon></g><rect x="16" y="68" width="68" height="7" rx="3.5" fill="#ff8a4a"></rect><g fill="url(#l)"><path d="M20.5,68 A9.5 9.5 0 0 1 39.5,68 Z"></path><path d="M40.5,68 A9.5 9.5 0 0 1 59.5,68 Z"></path><path d="M60.5,68 A9.5 9.5 0 0 1 79.5,68 Z"></path></g></g>
<rect width="100" height="100" rx="22.5" fill="url(#hi)"></rect></svg>