<svg xmlns="http://www.w3.org/2000/svg" width="100" height="100" viewBox="0 0 100 100"><defs>
  <linearGradient id="beam" x1="0" y1="1" x2="0" y2="0"><stop offset="0" stop-color="#ff8a4a" stop-opacity="0.8"></stop><stop offset="1" stop-color="#ff8a4a" stop-opacity="0"></stop></linearGradient>
  <radialGradient id="lamp" cx="0.5" cy="0.3" r="0.9"><stop offset="0" stop-color="#ffd8b4"></stop><stop offset="0.6" stop-color="#ff8a4a"></stop><stop offset="1" stop-color="#ff8a4a"></stop></radialGradient>
  <radialGradient id="glow" cx="0.5" cy="0.5" r="0.5"><stop offset="0" stop-color="#ff9a5a" stop-opacity="0.55"></stop><stop offset="1" stop-color="#ff9a5a" stop-opacity="0"></stop></radialGradient>
</defs><ellipse cx="50" cy="40" rx="38" ry="32" fill="url(#glow)"></ellipse><g fill="url(#beam)"><polygon points="27,66 37,66 44,20 20,20"></polygon><polygon points="45,66 55,66 62,20 38,20"></polygon><polygon points="63,66 73,66 80,20 56,20"></polygon></g><rect x="20" y="69" width="60" height="5.5" rx="2.75" fill="#ff8a4a"></rect><g fill="url(#lamp)"><path d="M24.5,69 A7.5 7.5 0 0 1 39.5,69 Z"></path><path d="M42.5,69 A7.5 7.5 0 0 1 57.5,69 Z"></path><path d="M60.5,69 A7.5 7.5 0 0 1 75.5,69 Z"></path></g></svg>