<svg xmlns="http://www.w3.org/2000/svg" width="384" height="84" viewBox="0 0 384 84">
  <g transform="translate(4,14) scale(0.6)"><g fill="#ed5f2b" fill-opacity="0.26"><polygon points="27,66 37,66 44,20 20,20"></polygon><polygon points="45,66 55,66 62,20 38,20"></polygon><polygon points="63,66 73,66 80,20 56,20"></polygon></g><rect x="20" y="69" width="60" height="5.5" rx="2.75" fill="#ed5f2b"></rect><g fill="#ed5f2b"><path d="M24.5,69 A7.5 7.5 0 0 1 39.5,69 Z"></path><path d="M42.5,69 A7.5 7.5 0 0 1 57.5,69 Z"></path><path d="M60.5,69 A7.5 7.5 0 0 1 75.5,69 Z"></path></g></g>
  <text x="74" y="57" font-family="&#39;Bricolage Grotesque&#39;,&#39;Hanken Grotesk&#39;,sans-serif" font-weight="700" font-size="40" letter-spacing="-1.2" fill="#271f15">Footlight</text>
</svg>